<svg version="1.1" xmlns="http://www.w3.org/2000/svg" xmlns:xlink="http://www.w3.org/1999/xlink" width="24px" height="24px" viewBox="0,0,256,256"><g fill="none" fill-rule="nonzero" stroke="none" stroke-width="1" stroke-linecap="butt" stroke-linejoin="miter" stroke-miterlimit="10" stroke-dasharray="" stroke-dashoffset="0" font-family="none" font-weight="none" font-size="none" text-anchor="none" style="mix-blend-mode: normal"><g transform="scale(10.66667,10.66667)"><path d="M15.846,20.25h-7.692c-0.989,0 -1.867,-0.539 -2.234,-1.374l-0.872,-1.981c-0.081,-0.184 -0.056,-0.391 0.066,-0.555c0.122,-0.164 0.326,-0.262 0.543,-0.262h12.687c0.218,0 0.421,0.098 0.543,0.262c0.122,0.164 0.147,0.372 0.066,0.555l-0.872,1.981c-0.368,0.835 -1.246,1.374 -2.235,1.374z" fill="#4f7150"></path><path d="M17.726,9.267c-0.046,-0.009 -0.102,-0.017 -0.158,-0.017h-11.136c-0.056,0 -0.111,0.008 -0.158,0.017c-3.443,0.749 -5.41,2.097 -5.41,3.697c0,1.331 1.308,2.375 3.276,3.091c0.594,0.219 1.244,0.413 1.94,0.573h0.009c1.8,0.413 3.879,0.623 5.912,0.623c2.033,0 4.12,-0.211 5.921,-0.623c0.696,-0.16 1.346,-0.354 1.94,-0.573c1.967,-0.716 3.276,-1.76 3.276,-3.091c-0.002,-1.6 -1.969,-2.948 -5.412,-3.697z" fill="#00a203"></path><path d="M12,13.328c-1.588,0 -3.176,-0.38 -4.754,-1.14c-0.961,-0.463 -1.479,-1.504 -1.258,-2.531c0.621,-2.89 3.148,-4.987 6.012,-4.987c2.864,0 5.391,2.097 6.012,4.987c0.221,1.027 -0.298,2.068 -1.259,2.531c-1.577,0.76 -3.165,1.14 -4.753,1.14z" fill="#eceff1"></path><path d="M12,18c-5.817,0 -12,-1.783 -12,-5.087c0,-1.898 2.124,-3.5 5.827,-4.392c0.402,-0.097 0.808,0.149 0.905,0.553c0.097,0.403 -0.151,0.808 -0.554,0.905c-2.798,0.674 -4.678,1.854 -4.678,2.934c0,1.693 4.49,3.587 10.5,3.587c6.01,0 10.5,-1.894 10.5,-3.587c0,-1.08 -1.88,-2.259 -4.679,-2.934c-0.402,-0.097 -0.65,-0.502 -0.554,-0.905c0.098,-0.403 0.504,-0.647 0.905,-0.553c3.704,0.892 5.828,2.493 5.828,4.392c0,3.304 -6.183,5.087 -12,5.087z" fill="#383232"></path><path d="M16.396,21h-8.792c-1.131,0 -2.134,-0.679 -2.554,-1.729l-0.997,-2.493c-0.154,-0.384 0.033,-0.821 0.418,-0.975c0.382,-0.154 0.821,0.034 0.975,0.418l0.997,2.493c0.192,0.477 0.647,0.786 1.161,0.786h8.791c0.515,0 0.97,-0.309 1.161,-0.786l0.997,-2.493c0.153,-0.384 0.592,-0.573 0.975,-0.418c0.385,0.154 0.572,0.59 0.418,0.975l-0.997,2.493c-0.42,1.05 -1.423,1.729 -2.553,1.729z" fill="#383232"></path><rect x="-8.69233" y="14.13988" transform="rotate(-47.135)" width="4.776" height="1.5" fill="#383232"></rect><rect x="1.94534" y="20.24228" transform="rotate(-42.881)" width="1.5" height="4.776" fill="#383232"></rect><path d="M12,13.998c-1.834,0 -3.668,-0.439 -5.489,-1.317c-1.109,-0.535 -1.708,-1.737 -1.453,-2.923c0.716,-3.337 3.635,-5.758 6.942,-5.758c3.307,0 6.226,2.421 6.942,5.758c0.255,1.186 -0.344,2.388 -1.454,2.923c-1.82,0.878 -3.654,1.317 -5.488,1.317zM12,5.5c-2.604,0 -4.906,1.923 -5.476,4.573c-0.108,0.507 0.153,1.023 0.638,1.257c3.257,1.57 6.422,1.569 9.675,0c0.001,0 0.001,0 0.001,0c0.484,-0.233 0.746,-0.75 0.638,-1.257c-0.57,-2.65 -2.872,-4.573 -5.476,-4.573z" fill="#383232"></path></g></g></svg>
