<svg version="1.1" xmlns="http://www.w3.org/2000/svg" xmlns:xlink="http://www.w3.org/1999/xlink" width="24px" height="24px" viewBox="0,0,256,256"><g fill="none" fill-rule="nonzero" stroke="none" stroke-width="1" stroke-linecap="butt" stroke-linejoin="miter" stroke-miterlimit="10" stroke-dasharray="" stroke-dashoffset="0" font-family="none" font-weight="none" font-size="none" text-anchor="none" style="mix-blend-mode: normal"><g transform="scale(10.66667,10.66667)"><path d="M12,24c-6.617,0 -12,-5.383 -12,-12c0,-6.617 5.383,-12 12,-12c6.617,0 12,5.383 12,12c0,6.617 -5.383,12 -12,12z" fill="#cbcbcb"></path><path d="M11,4c0,0.55 -0.45,1 -1,1h-7.74c0.53,-0.74 1.14,-1.41 1.82,-2h5.92c0.55,0 1,0.45 1,1z" fill="#888888"></path><path d="M8,8c0,0.55 -0.45,1 -1,1h-6.62c0.18,-0.69 0.42,-1.36 0.71,-2h5.91c0.55,0 1,0.45 1,1z" fill="#888888"></path><path d="M16,9h-5c-0.553,0 -1,-0.448 -1,-1c0,-0.552 0.447,-1 1,-1h5c0.553,0 1,0.448 1,1c0,0.552 -0.447,1 -1,1z" fill="#b2b5b7"></path><path d="M13,12c0,0.55 -0.45,1 -1,1h-11.96c-0.03,-0.33 -0.04,-0.66 -0.04,-1c0,-0.34 0.01,-0.67 0.04,-1h11.96c0.55,0 1,0.45 1,1z" fill="#888888"></path><path d="M23.62,15c-0.18,0.69 -0.42,1.36 -0.71,2h-6.91c-0.55,0 -1,-0.45 -1,-1c0,-0.55 0.45,-1 1,-1z" fill="#888888"></path><path d="M12,17h-2c-0.553,0 -1,-0.448 -1,-1c0,-0.552 0.447,-1 1,-1h2c0.553,0 1,0.448 1,1c0,0.552 -0.447,1 -1,1z" fill="#b2b5b7"></path><path d="M10,20c0,0.55 -0.45,1 -1,1h-4.92c-0.68,-0.59 -1.29,-1.26 -1.82,-2h6.74c0.55,0 1,0.45 1,1z" fill="#888888"></path><path d="M15,21h-2c-0.553,0 -1,-0.448 -1,-1c0,-0.552 0.447,-1 1,-1h2c0.553,0 1,0.448 1,1c0,0.552 -0.447,1 -1,1z" fill="#b2b5b7"></path></g></g></svg>
