<svg version="1.1" xmlns="http://www.w3.org/2000/svg" xmlns:xlink="http://www.w3.org/1999/xlink" width="64px" height="64px" viewBox="0,0,256,256"><g fill="none" fill-rule="nonzero" stroke="none" stroke-width="1" stroke-linecap="butt" stroke-linejoin="miter" stroke-miterlimit="10" stroke-dasharray="" stroke-dashoffset="0" font-family="none" font-weight="none" font-size="none" text-anchor="none" style="mix-blend-mode: normal"><g transform="scale(4,4)"><g><circle cx="32" cy="32" r="31" fill="#b69090"></circle><path d="M53.79358,10.07965c-1.0026,-1.0018 -2.07234,-1.93408 -3.20178,-2.79034c9.35064,12.31413 8.18161,29.63933 -2.73855,40.58567c-10.92016,10.94634 -28.24252,12.15684 -40.579,2.83571c0.85393,1.13185 1.78399,2.2042 2.78372,3.2096c12.10626,12.07726 31.71087,12.05374 43.78813,-0.05251c12.07726,-12.10626 12.05374,-31.71087 -0.05252,-43.78812z" fill="#9c7777"></path><path d="M62.97,33.12l-5.98,-6l-14.18,-14.21c-1.17,-1.17119 -1.17,-3.06881 0,-4.24c0.55445,-0.56799 1.31628,-0.88572 2.11,-0.88c0.79593,-0.00208 1.55951,0.31487 2.12,0.88l8.78,8.8l5.97,5.98c0.91408,3.13823 1.3126,6.40405 1.18,9.67z" fill="#fafad5"></path><path d="M17.11136,28.46c-0.55967,0.56327 -1.32091,0.88001 -2.11495,0.88001c-0.79404,0 -1.55528,-0.31674 -2.11495,-0.88001l-9.05822,-9.42c0.82854,-1.80635 1.83087,-3.52779 2.99282,-5.14l10.2953,10.32c1.16719,1.17235 1.16719,3.06765 0,4.24z" fill="#fafad5"></path><path d="M12.1732,41.9c-0.55966,0.56327 -1.32089,0.88001 -2.11492,0.88001c-0.79403,0 -1.55526,-0.31674 -2.11492,-0.88001l-6.78377,-6.8c-0.27965,-2.73634 -0.18903,-5.49788 0.26941,-8.21l10.7442,10.77c1.16719,1.17235 1.16719,3.06765 0,4.24z" fill="#fafad5"></path><path d="M32.6341,21.39c0.76103,0.757 1.0599,1.86277 0.78383,2.90008c-0.27607,1.03731 -1.08506,1.84823 -2.1217,2.12679c-1.03664,0.27856 -2.14313,-0.01765 -2.90195,-0.77687l-16.87954,-16.92c4.96342,-4.39107 11.2131,-7.06039 17.81726,-7.61l3.3021,3.31c0.76103,0.757 1.0599,1.86277 0.78383,2.90008c-0.27607,1.03731 -1.08506,1.84823 -2.1217,2.12679c-1.03664,0.27856 -2.14313,-0.01765 -2.90195,-0.77687l-1.40666,-1.42c-1.17084,-1.16804 -3.06688,-1.16576 -4.23492,0.00508c-1.16804,1.17084 -1.16576,3.06688 0.00508,4.23492z" fill="#fafad5"></path><path d="M40.39544,51.8c-1.17113,1.16998 -3.06869,1.16998 -4.23982,0l-1.40662,-1.42c-1.17361,-1.16804 -3.07188,-1.16353 -4.23992,0.01008c-1.16804,1.17361 -1.16353,3.07188 0.01008,4.23992l7.6915,7.72c-2.57938,0.54365 -5.21911,0.74538 -7.85115,0.6l-12.53989,-12.57c-1.17084,-1.16804 -1.17312,-3.06408 -0.00508,-4.23492c1.16804,-1.17084 3.06408,-1.17312 4.23492,-0.00508c1.17195,1.16154 3.06267,1.15619 4.22803,-0.01195c1.16536,-1.16814 1.1662,-3.05887 0.00187,-4.22805l-2.82324,-2.83c-0.76212,-0.75642 -1.06152,-1.86267 -0.78492,-2.90021c0.2766,-1.03754 1.08696,-1.84794 2.12449,-2.12458c1.03753,-0.27665 2.14379,0.0227 2.90024,0.78479l12.6995,12.73c1.15727,1.17643 1.15727,3.06357 0,4.24z" fill="#fafad5"></path><path d="M62.60216,35.88c-0.79978,6.48599 -3.64401,12.54885 -8.12053,17.31l-15.50277,-15.53c-1.17361,-1.16804 -1.17812,-3.06631 -0.01008,-4.23992c1.16804,-1.17361 3.06631,-1.17812 4.23992,-0.01008l9.87632,9.9c1.17111,1.16926 3.06812,1.16849 4.23828,-0.00172c1.17016,-1.17021 1.17085,-3.06722 0.00154,-4.23828l-1.41664,-1.41c-1.17027,-1.16863 -1.17318,-3.0642 -0.0065,-4.23642c1.16668,-1.17222 3.06224,-1.1783 4.2364,-0.01358z" fill="#fafad5"></path><path d="M24.38309,56.95923l5.97644,5.99077c2.63204,0.14538 5.27177,-0.05635 7.85115,-0.6l-5.9796,-6.00171c-2.57943,0.53618 -5.21666,0.74148 -7.84799,0.61094z" fill="#b69090"></path><path d="M60.1381,33.41c-1.14246,-1.12888 -2.9713,-1.15783 -4.14892,-0.06567c-0.23783,0.98181 -0.52383,1.953 -0.858,2.91357c0.12566,0.52972 0.39444,1.01474 0.777,1.4021l1.41664,1.41c1.16931,1.17106 1.16862,3.06807 -0.00154,4.23828c-1.17016,1.17021 -3.06717,1.17098 -4.23828,0.00172l-0.90572,-0.9079c-1.06864,1.71352 -2.3021,3.31856 -3.68282,4.79224l5.98517,5.99566c4.47652,-4.76115 7.32075,-10.82401 8.12053,-17.31z" fill="#b69090"></path><path d="M62.97,33.12l-5.98,-6c0.11107,-3.2578 -0.28362,-6.51313 -1.17,-9.65l5.97,5.98c0.91408,3.13823 1.3126,6.40405 1.18,9.67z" fill="#b69090"></path></g></g></g></svg>
