<svg version="1.1" xmlns="http://www.w3.org/2000/svg" xmlns:xlink="http://www.w3.org/1999/xlink" width="64px" height="64px" viewBox="0,0,256,256"><g fill="none" fill-rule="nonzero" stroke="none" stroke-width="1" stroke-linecap="butt" stroke-linejoin="miter" stroke-miterlimit="10" stroke-dasharray="" stroke-dashoffset="0" font-family="none" font-weight="none" font-size="none" text-anchor="none" style="mix-blend-mode: normal"><g transform="scale(4,4)"><g><circle cx="32" cy="32" r="31" fill="#f4ddfa"></circle><path d="M50.135,6.86505c8.9038,12.33179 7.54284,29.30234 -3.21242,40.05757c-10.75527,10.75523 -27.72583,12.11612 -40.05758,3.21227c7.17597,9.95033 19.54547,14.73186 31.54836,12.1953c12.00289,-2.53657 21.38021,-11.91385 23.91682,-23.91673c2.53661,-12.00288 -2.24488,-24.37239 -12.19518,-31.54841z" fill="#e5bffc"></path><path d="M38,38c8.14673,2.22186 19.57776,-2.13629 24.96326,-4.54773c0.02221,-0.48157 0.03674,-0.96521 0.03674,-1.45227c-0.00149,-2.36956 -0.27408,-4.73117 -0.81244,-7.03876c-27.02386,6.23828 -50.07025,-1.67663 -58.62262,-5.31268c-1.07247,2.46173 -1.81804,5.05327 -2.21771,7.70856c4.45611,2.95636 12.49097,7.64288 18.65277,7.64288c8,0 12.37451,1.46576 18,3z" fill="#e5bffc"></path><path d="M59.56885,17.82959c-1.2975,-2.51967 -2.93368,-4.84995 -4.863,-6.926c-23.20264,5.93525 -35.39777,-0.62469 -40.20819,-4.4884c-2.4303,1.66534 -4.61223,3.66681 -6.48066,5.94467c8.83853,4.35706 30.53042,12.09284 51.55185,5.46973z" fill="#e5bffc"></path><path d="M27,51c-12.204,-1.356 -21.18433,-9.60327 -25.706,-14.77649c0.97038,7.09682 4.37443,13.63665 9.6308,18.50256c9.81073,1.93311 26.68848,4.57264 38.69385,2.77607c2.90617,-2.01269 5.44873,-4.50514 7.51886,-7.37067c-3.76127,-1.937 -7.90861,-3.00702 -12.13751,-3.13147c-6,0 -8.02539,4.71246 -18,4z" fill="#e5bffc"></path><path d="M46.75757,47.0755c-10.76374,10.61815 -27.62021,11.91471 -39.88117,3.06757c1.19584,1.65679 2.55184,3.19185 4.0484,4.583c9.81073,1.93311 26.68848,4.57264 38.69385,2.77607c2.90617,-2.01269 5.44873,-4.50514 7.51886,-7.37067c-3.24394,-1.64496 -6.76217,-2.68077 -10.37994,-3.05597z" fill="#d9a4fc"></path><path d="M62.18756,24.96124c-2.09906,0.48456 -4.17071,0.87445 -6.21686,1.19684c-0.1311,3.69015 -0.92342,7.32682 -2.33929,10.73706c3.18585,-0.93238 6.30382,-2.08272 9.33185,-3.44287c0.02221,-0.48157 0.03674,-0.96521 0.03674,-1.45227c-0.00149,-2.36956 -0.27408,-4.73117 -0.81244,-7.03876z" fill="#d9a4fc"></path><path d="M55.40613,18.95367c1.38794,-0.31689 2.77673,-0.68737 4.16272,-1.12408c-1.2975,-2.51967 -2.93368,-4.84995 -4.863,-6.926c-0.63165,0.16156 -1.25153,0.30982 -1.86694,0.45319c1.18347,2.40947 2.04654,4.96345 2.56722,7.59689z" fill="#d9a4fc"></path></g></g></g></svg>
