<svg version="1.1" xmlns="http://www.w3.org/2000/svg" xmlns:xlink="http://www.w3.org/1999/xlink" width="64px" height="64px" viewBox="0,0,256,256"><g fill="none" fill-rule="nonzero" stroke="none" stroke-width="1" stroke-linecap="butt" stroke-linejoin="miter" stroke-miterlimit="10" stroke-dasharray="" stroke-dashoffset="0" font-family="none" font-weight="none" font-size="none" text-anchor="none" style="mix-blend-mode: normal"><g transform="scale(4,4)"><g><circle cx="32" cy="32" r="31" fill="#96b2d5"></circle><path d="M51.82727,8.17273c10.25157,12.31678 9.42508,30.41713 -1.9063,41.7484c-11.33139,11.33127 -29.43174,12.15758 -41.74842,1.90587c7.51647,9.03489 19.49604,13.04193 30.93578,10.34768c11.43974,-2.69425 20.37193,-11.62635 23.0663,-23.06606c2.69437,-11.43971 -1.31255,-23.41932 -10.34736,-30.93589z" fill="#7d97b8"></path><path d="M34,11c10,0 11,3 12,9c0.90643,5.43878 5.94116,14.144 16.554,17.21844c1.7235,-10.11506 -1.66816,-20.42776 -9.05911,-27.54525c-7.39096,-7.11748 -17.82416,-10.11809 -27.86708,-8.01462c-0.01264,3.84503 1.21856,9.34143 8.37219,9.34143z" fill="#7598b2"></path><path d="M51.82727,8.17273c6.30444,7.57508 8.63147,17.6965 6.26837,27.26434c1.42536,0.73581 2.9184,1.33237 4.45836,1.78137c1.87116,-10.90306 -2.21812,-21.97595 -10.72673,-29.04571z" fill="#617e94"></path><ellipse cx="19" cy="14" rx="5" ry="4" fill="#7598b2"></ellipse><path d="M30,49c-10.1286,-2.53217 7.80627,-16.59686 -5,-23c-9.92224,-4.96112 -18.83411,6.14618 -23.18719,13.04047c2.29266,9.84254 9.24054,17.94892 18.61641,21.72053c9.37587,3.7716 20.00184,2.7346 28.47159,-2.77858c4.34602,-22.25329 -11.31823,-7.08679 -18.90081,-8.98242z" fill="#7598b2"></path><path d="M28,59c-7.2305,0.01036 -14.23526,-2.51756 -19.79279,-7.14294c10.0516,12.06033 27.53705,14.69231 40.69355,6.12536c0.57975,-2.53862 0.81102,-5.14438 0.68744,-7.74542c-5.7764,5.62688 -13.52418,8.77182 -21.5882,8.763z" fill="#617e94"></path><circle cx="38" cy="27" r="4" fill="#7598b2"></circle><circle cx="52" cy="40" r="3" fill="#7598b2"></circle><circle cx="55" cy="23" r="2" fill="#96b2d5"></circle><circle cx="18" cy="52" r="2" fill="#96b2d5"></circle><circle cx="35" cy="54" r="3" fill="#96b2d5"></circle><circle cx="17" cy="38" r="5" fill="#96b2d5"></circle></g></g></g></svg>
