<svg version="1.1" xmlns="http://www.w3.org/2000/svg" xmlns:xlink="http://www.w3.org/1999/xlink" width="64px" height="64px" viewBox="0,0,256,256"><g fill="none" fill-rule="nonzero" stroke="none" stroke-width="1" stroke-linecap="butt" stroke-linejoin="miter" stroke-miterlimit="10" stroke-dasharray="" stroke-dashoffset="0" font-family="none" font-weight="none" font-size="none" text-anchor="none" style="mix-blend-mode: normal"><g transform="scale(4,4)"><g><circle cx="32" cy="32" r="31" fill="#afae80"></circle><path d="M51.82727,8.17273c10.25157,12.31678 9.42508,30.41713 -1.9063,41.7484c-11.33139,11.33127 -29.43174,12.15758 -41.74842,1.90587c7.51647,9.03489 19.49604,13.04193 30.93578,10.34768c11.43974,-2.69425 20.37193,-11.62635 23.0663,-23.06606c2.69437,-11.43971 -1.31255,-23.41932 -10.34736,-30.93589z" fill="#a0886a"></path><path d="M62.98456,32.6109c0.00397,-0.2039 0.01544,-0.406 0.01544,-0.6109c0.00229,-3.5468 -0.60534,-7.06759 -1.79633,-10.40845c-24.75952,4.9206 -50.10162,1.365 -58.38494,-0.06634c-1.20614,3.36049 -1.82147,6.9044 -1.81873,10.47479c0,0.22961 0.01239,0.45618 0.01733,0.68457c10.25587,1.53888 20.61199,2.31282 30.98267,2.31543c10.3697,-0.10928 20.72068,-0.9074 30.98456,-2.3891z" fill="#c18380"></path><path d="M54.87823,11.08447c-5.85175,-6.40367 -14.11965,-10.06145 -22.7943,-10.08436c-8.67464,-0.02291 -16.96175,3.59115 -22.84724,9.96382c9.23816,1.51178 29.02893,3.89593 45.64154,0.12054z" fill="#c18380"></path><path d="M60.627,43.90656c-19.00409,4.49761 -47.105,1.75451 -57.00866,0.56286c1.78218,4.04712 4.40764,7.66725 7.70092,10.61847c6.83909,1.13025 13.75035,1.76925 20.68074,1.91211c6.9304,-0.14285 13.84168,-0.78186 20.68079,-1.91211c3.4488,-3.08845 6.16372,-6.90868 7.94621,-11.18133z" fill="#c18380"></path><path d="M8.22437,51.87189c0.95327,1.14472 1.98755,2.21949 3.09484,3.216c0.70032,0.109 1.44452,0.22113 2.22315,0.33386c-1.8901,-0.99712 -3.67221,-2.18672 -5.31799,-3.54986z" fill="#ad6d69"></path><path d="M53.809,45.17133c-3.41194,5.11926 -8.26524,9.11185 -13.94623,11.4729c4.68787,-0.38227 9.29779,-1.00843 12.81806,-1.55634c3.44879,-3.08846 6.16369,-6.90869 7.94617,-11.18133c-2.16661,0.51275 -4.45543,0.92718 -6.818,1.26477z" fill="#ad6d69"></path><path d="M61.20367,21.59155c-0.92309,0.18347 -1.847,0.35144 -2.77081,0.5119c0.71157,3.65985 0.75392,7.41837 0.125,11.09333c1.68933,-0.20917 3.18811,-0.4104 4.4267,-0.58588c0.00397,-0.2039 0.01544,-0.406 0.01544,-0.6109c0.00229,-3.5468 -0.60534,-7.06759 -1.79633,-10.40845z" fill="#ad6d69"></path><path d="M54.0824,11.25525c0.26532,-0.05689 0.5321,-0.11084 0.79583,-0.17078c-0.94084,-1.02413 -1.94911,-1.9842 -3.01806,-2.87378c0.80163,0.96898 1.54373,1.9857 2.22223,3.04456z" fill="#ad6d69"></path><circle cx="28" cy="8" r="3" fill="#a0886a"></circle><circle cx="19" cy="18" r="3" fill="#a0886a"></circle><circle cx="46" cy="30" r="3" fill="#a0886a"></circle><circle cx="31" cy="30" r="3" fill="#afae80"></circle><circle cx="13" cy="39" r="3" fill="#a0886a"></circle><circle cx="23" cy="51" r="3" fill="#a0886a"></circle></g></g></g></svg>
