<svg version="1.1" xmlns="http://www.w3.org/2000/svg" xmlns:xlink="http://www.w3.org/1999/xlink" width="64px" height="64px" viewBox="0,0,256,256"><g fill="none" fill-rule="nonzero" stroke="none" stroke-width="1" stroke-linecap="butt" stroke-linejoin="miter" stroke-miterlimit="10" stroke-dasharray="" stroke-dashoffset="0" font-family="none" font-weight="none" font-size="none" text-anchor="none" style="mix-blend-mode: normal"><g transform="scale(4,4)"><g><circle cx="32" cy="32" r="31" fill="#aabed0"></circle><path d="M50.99219,7.50781c9.57467,12.3377 8.47351,29.87211 -2.56946,40.91502c-11.04297,11.04291 -28.57739,12.14398 -40.91504,2.56924c7.35658,9.49232 19.53458,13.88055 31.25503,11.26248c11.72045,-2.61808 20.87363,-11.7712 23.49177,-23.49164c2.61814,-11.72044 -1.77003,-23.89846 -11.2623,-31.25509z" fill="#7484a1"></path><path d="M42.001,34c-0.02344,0 -0.04786,-0.001 -0.07227,-0.00244c-14.166,-1.01221 -21.2832,-6.98438 -21.5791,-7.23828c-0.41785,-0.35937 -0.46608,-0.98911 -0.10783,-1.40793c0.35825,-0.41881 0.98786,-0.46873 1.40763,-0.1116c0.06836,0.05761 6.96289,5.80127 20.42188,6.76269c0.53668,0.03862 0.9466,0.49494 0.92768,1.03267c-0.01893,0.53773 -0.45992,0.9641 -0.99799,0.96489z" fill="#7484a1"></path><path d="M16.001,39c-0.05528,0.00002 -0.11047,-0.00455 -0.165,-0.01367c-3.21485,-0.57961 -6.33419,-1.60066 -9.26953,-3.03418c-0.49754,-0.23947 -0.70676,-0.83693 -0.46729,-1.33447c0.23947,-0.49754 0.83693,-0.70676 1.33447,-0.46729c2.76466,1.35131 5.7025,2.31482 8.73047,2.86328c0.51311,0.08534 0.8751,0.54982 0.83253,1.06823c-0.04257,0.51842 -0.47549,0.91761 -0.99565,0.9181z" fill="#7484a1"></path><path d="M40.001,49.3623c-0.31851,0.00049 -0.61815,-0.15096 -0.80664,-0.40771c-4.19043,-5.69824 -13.01465,-4.9668 -13.10352,-4.9585c-0.55013,0.05016 -1.03675,-0.35514 -1.08691,-0.90527c-0.05016,-0.55013 0.35514,-1.03675 0.90527,-1.08691c0.40918,-0.03516 10.04492,-0.832 14.89648,5.76611c0.22343,0.30359 0.25711,0.70705 0.08709,1.04348c-0.17002,0.33643 -0.51482,0.54862 -0.89177,0.5488z" fill="#7484a1"></path><path d="M40.001,23c-0.05528,0.00002 -0.11047,-0.00455 -0.165,-0.01367c-3.55272,-0.55673 -7.01254,-1.59698 -10.28321,-3.0918c-0.49289,-0.24737 -0.69244,-0.84709 -0.44603,-1.34045c0.24641,-0.49336 0.84575,-0.69407 1.33959,-0.44861c3.09561,1.39699 6.36366,2.37501 9.71777,2.9082c0.51311,0.08534 0.8751,0.54982 0.83253,1.06823c-0.04257,0.51842 -0.47549,0.91761 -0.99565,0.9181z" fill="#7484a1"></path><path d="M4.42334,17.84479c1.85102,2.90283 5.19769,4.49313 8.61735,4.09487c3.41967,-0.39826 6.3113,-2.71508 7.4457,-5.9656c0.171,0.0097 0.34021,0.02594 0.51361,0.02594c3.48404,-0.00005 6.65509,-2.01093 8.14074,-5.16233c1.48565,-3.15141 1.019,-6.87718 -1.19799,-9.56484c-10.08299,1.33297 -18.87147,7.5254 -23.51941,16.57196z" fill="#7484a1"></path><path d="M2.85248,42.57434c2.97488,8.1912 9.25893,14.75272 17.31403,18.07852c8.0551,3.3258 17.13782,3.10893 25.02502,-0.59752c-1.98199,-4.37991 -6.38509,-7.1557 -11.19153,-7.05534c-3.69006,0.16273 -7.21566,1.57297 -10,4c-0.10535,-3.62738 1,-8 -3.769,-8.93066c-1.27451,-0.41256 -2.5916,-0.67962 -3.92615,-0.79609c-2.15595,-3.31393 -5.85144,-5.30143 -9.80485,-5.27325c-1.23826,0.00118 -2.46881,0.19494 -3.64752,0.57434z" fill="#7484a1"></path><path d="M39.93213,54.44653c-10.58708,5.08166 -23.13646,3.74653 -32.41736,-3.44891c8.88995,11.46702 24.54603,15.23082 37.67676,9.05768c-1.04961,-2.42296 -2.90885,-4.40571 -5.2594,-5.60877z" fill="#656981"></path><path d="M40.81366,2.27875c-1.48667,2.27052 -0.88161,5.31336 1.3606,6.8424c-1.5625,2.3145 -1.59414,5.3378 -0.08041,7.68449c1.51373,2.34669 4.28109,3.56449 7.03396,3.09536c-0.08196,0.69671 -0.12463,1.39749 -0.12781,2.099c-0.12164,3.86062 1.21681,7.62516 3.74829,10.54248c-2.82593,2.19252 -4.74829,6.4997 -4.74829,11.45752c0,4.80823 1.812,8.99652 4.49878,11.24554l0.00012,-0.00012c4.67049,-4.11877 7.99093,-9.54979 9.528,-15.58429l0.016,0.00421c0.96045,-3.76497 1.20081,-7.67751 0.70843,-11.53173l-0.01672,0.00268c-1.53262,-12.20365 -10.13273,-22.34816 -21.92095,-25.85754z" fill="#7484a1"></path><path d="M62.7514,28.13361l-0.01672,0.00268c-1.02169,-8.14091 -5.2321,-15.5437 -11.70685,-20.58313c9.50313,12.28981 8.4342,29.71768 -2.49963,40.754c0.56495,2.67127 1.95368,5.09799 3.97058,6.93835l0.00012,-0.00012c4.67049,-4.11877 7.99093,-9.54979 9.528,-15.58429l0.016,0.00421c0.96045,-3.76497 1.20081,-7.67751 0.70843,-11.53173z" fill="#656981"></path></g></g></g></svg>
