<svg version="1.1" xmlns="http://www.w3.org/2000/svg" xmlns:xlink="http://www.w3.org/1999/xlink" width="64px" height="64px" viewBox="0,0,256,256"><g fill="none" fill-rule="nonzero" stroke="none" stroke-width="1" stroke-linecap="butt" stroke-linejoin="miter" stroke-miterlimit="10" stroke-dasharray="" stroke-dashoffset="0" font-family="none" font-weight="none" font-size="none" text-anchor="none" style="mix-blend-mode: normal"><g transform="scale(4,4)"><g><circle cx="32" cy="32" r="31" fill="#fff4b5"></circle><path d="M50.99219,7.50781c9.57467,12.3377 8.47351,29.87211 -2.56946,40.91502c-11.04297,11.04291 -28.57739,12.14398 -40.91504,2.56924c7.35658,9.49232 19.53458,13.88055 31.25503,11.26248c11.72045,-2.61808 20.87363,-11.7712 23.49177,-23.49164c2.61814,-11.72044 -1.77003,-23.89846 -11.2623,-31.25509z" fill="#c0b38a"></path><path d="M22,55c-4.067,-0.67786 -7.83667,-4.1156 -10,-7c-1.70563,-2.27417 -5.3479,-2.9306 -8.17578,-3.075c4.85875,10.58707 15.2426,17.55657 26.88122,18.0423c-0.88458,-4.30543 -3.78381,-7.14705 -8.70544,-7.9673z" fill="#c0b38a"></path><path d="M43,11c2,4 6,2 9,4c1.53156,1.02106 4.62384,1.77985 7.28717,2.2796c-6.81888,-12.62585 -21.40743,-18.92695 -35.27405,-15.2356c3.5122,2.83771 7.60391,4.87079 11.98688,5.956c0,0 5,-1 7,3z" fill="#c0b38a"></path><path d="M11,17c1.92675,-0.53297 3.97233,0.28527 5,2c2,3 4,9 13,10c9,1 11,-2 18,4c4.25,3.64288 10.70782,5.44086 15.129,6.29266c0.57774,-2.38788 0.87012,-4.83588 0.871,-7.29266c0,-0.8067 -0.04065,-1.60345 -0.10114,-2.39465c-4.14186,-3.85993 -10.93652,-6.60535 -13.89886,-6.60535c-4,0 -11,0 -14,-5c-3,-5 -7,-4 -13,-5c-3.59174,-0.59863 -6.4577,-3.7002 -8.187,-6.098c-3.05308,2.21629 -5.6783,4.96861 -7.74787,8.123c1.20285,1.45362 3.06126,2.19738 4.93487,1.975z" fill="#c0b38a"></path><path d="M50,45c-2,-6 -9,-7 -14,-7c-5,0 -15,0 -20,-8c-2.94147,-4.7063 -8.64978,-7.68054 -12.853,-9.33325c-1.1687,2.97349 -1.86813,6.11056 -2.07324,9.29889c3.65518,-0.36438 8.22958,0.07556 9.92624,4.03436c2.49139,5.81317 7,3 9,8c2.0172,4.84548 6.7514,8.00162 12,8c4.17328,0 13.21844,3.48431 16.67841,8.12494c2.73671,-1.74805 5.18334,-3.91317 7.25128,-6.41694c-2.44053,-1.77854 -4.46406,-4.06767 -5.92969,-6.708z" fill="#c0b38a"></path><path d="M27.60651,57.47205c-0.36792,0.01295 -0.73542,0.02795 -1.10651,0.02795c-6.85534,0.00859 -13.51834,-2.266 -18.93738,-6.46478c5.58178,7.19008 14.04824,11.55525 23.14282,11.93207c-0.38563,-2.12811 -1.47739,-4.0641 -3.09893,-5.49524z" fill="#a69964"></path><path d="M50.5882,46.00629c-2.31433,2.85467 -5.11559,5.27724 -8.2742,7.15564c2.45089,1.18194 4.62084,2.87407 6.36445,4.963c2.73669,-1.74805 5.18331,-3.91317 7.25124,-6.41693c-2.11745,-1.55426 -3.92852,-3.48747 -5.34149,-5.70171z" fill="#a69964"></path><path d="M62.89886,29.60535c-1.6393,-1.48097 -3.45893,-2.74917 -5.41577,-3.77454c0.00476,0.22333 0.01691,0.44476 0.01691,0.66919c0.00233,3.76874 -0.68448,7.50614 -2.02655,11.02783c2.17491,0.7419 4.39879,1.3316 6.65555,1.76483c0.57774,-2.38788 0.87012,-4.83588 0.871,-7.29266c0,-0.8067 -0.04065,-1.60345 -0.10114,-2.39465z" fill="#a69964"></path><path d="M55.84406,16.50635c1.12615,0.303 2.32037,0.56256 3.44311,0.77325c-2.05504,-3.78871 -4.87435,-7.10946 -8.27942,-9.752c2.09802,2.70456 3.73236,5.73875 4.83631,8.97875z" fill="#a69964"></path><rect x="50" y="50" width="2" height="2" fill="#fff4b5"></rect><rect x="26" y="22" width="2" height="2" fill="#fff4b5"></rect><rect x="7" y="39" width="2" height="2" fill="#c0b38a"></rect><rect x="31" y="9" width="2" height="2" fill="#c0b38a"></rect></g></g></g></svg>
